<mxfile host="app.diagrams.net" agent="Mozilla/5.0 (Windows NT 10.0; Win64; x64) AppleWebKit/537.36 (KHTML, like Gecko) Chrome/140.0.0.0 Safari/537.36" version="28.2.3">
  <diagram name="Trang-1" id="n54NjxjHOWSCBZ2IY6Qm">
    <mxGraphModel dx="2798" dy="2034" grid="1" gridSize="10" guides="1" tooltips="1" connect="1" arrows="1" fold="1" page="1" pageScale="1" pageWidth="827" pageHeight="1169" math="0" shadow="0">
      <root>
        <mxCell id="0" />
        <mxCell id="1" parent="0" />
        <mxCell id="K259Kp41WnnDMevqQn30-1" value="&lt;font style=&quot;font-size: 18px;&quot; face=&quot;Times New Roman&quot;&gt;Thủ thư&lt;/font&gt;" style="shape=umlActor;verticalLabelPosition=bottom;verticalAlign=top;html=1;outlineConnect=0;" vertex="1" parent="1">
          <mxGeometry y="240" width="40" height="80" as="geometry" />
        </mxCell>
        <mxCell id="K259Kp41WnnDMevqQn30-2" value="&lt;font style=&quot;font-size: 18px;&quot; face=&quot;Times New Roman&quot;&gt;Quản lý tài khoản&lt;/font&gt;" style="ellipse;whiteSpace=wrap;html=1;" vertex="1" parent="1">
          <mxGeometry x="230" y="30" width="160" height="80" as="geometry" />
        </mxCell>
        <mxCell id="K259Kp41WnnDMevqQn30-3" value="&lt;font style=&quot;font-size: 18px;&quot; face=&quot;Times New Roman&quot;&gt;Tạo tài khoản&lt;/font&gt;" style="ellipse;whiteSpace=wrap;html=1;" vertex="1" parent="1">
          <mxGeometry x="490" y="-160" width="120" height="60" as="geometry" />
        </mxCell>
        <mxCell id="K259Kp41WnnDMevqQn30-4" value="&lt;font style=&quot;font-size: 18px;&quot; face=&quot;Times New Roman&quot;&gt;Sửa tài khoản&lt;/font&gt;" style="ellipse;whiteSpace=wrap;html=1;" vertex="1" parent="1">
          <mxGeometry x="540" y="-60" width="120" height="60" as="geometry" />
        </mxCell>
        <mxCell id="K259Kp41WnnDMevqQn30-5" value="&lt;font style=&quot;font-size: 18px;&quot; face=&quot;Times New Roman&quot;&gt;&amp;nbsp;Xóa tài khoản&lt;/font&gt;" style="ellipse;whiteSpace=wrap;html=1;" vertex="1" parent="1">
          <mxGeometry x="620" y="70" width="120" height="60" as="geometry" />
        </mxCell>
        <mxCell id="K259Kp41WnnDMevqQn30-6" value="&lt;font style=&quot;font-size: 18px;&quot; face=&quot;Times New Roman&quot;&gt;&amp;lt;&amp;lt;extend&amp;gt;&amp;gt;&lt;/font&gt;" style="endArrow=open;startArrow=none;endFill=0;startFill=0;endSize=8;html=1;verticalAlign=bottom;dashed=1;labelBackgroundColor=none;rounded=0;exitX=0;exitY=0.5;exitDx=0;exitDy=0;entryX=0.812;entryY=0.107;entryDx=0;entryDy=0;entryPerimeter=0;" edge="1" parent="1" source="K259Kp41WnnDMevqQn30-3" target="K259Kp41WnnDMevqQn30-2">
          <mxGeometry x="0.0993" y="-10" width="160" relative="1" as="geometry">
            <mxPoint x="220" y="-100" as="sourcePoint" />
            <mxPoint x="340" y="-10" as="targetPoint" />
            <mxPoint as="offset" />
          </mxGeometry>
        </mxCell>
        <mxCell id="K259Kp41WnnDMevqQn30-7" value="&lt;font style=&quot;font-size: 18px;&quot; face=&quot;Times New Roman&quot;&gt;&amp;lt;&amp;lt;extend&amp;gt;&amp;gt;&lt;/font&gt;" style="endArrow=open;startArrow=none;endFill=0;startFill=0;endSize=8;html=1;verticalAlign=bottom;dashed=1;labelBackgroundColor=none;rounded=0;exitX=0.083;exitY=0.833;exitDx=0;exitDy=0;entryX=0.99;entryY=0.385;entryDx=0;entryDy=0;entryPerimeter=0;exitPerimeter=0;" edge="1" parent="1" source="K259Kp41WnnDMevqQn30-4" target="K259Kp41WnnDMevqQn30-2">
          <mxGeometry x="0.0993" y="-10" width="160" relative="1" as="geometry">
            <mxPoint x="414" y="130" as="sourcePoint" />
            <mxPoint x="340" y="319" as="targetPoint" />
            <mxPoint as="offset" />
          </mxGeometry>
        </mxCell>
        <mxCell id="K259Kp41WnnDMevqQn30-8" value="&lt;font style=&quot;font-size: 18px;&quot; face=&quot;Times New Roman&quot;&gt;&amp;lt;&amp;lt;extend&amp;gt;&amp;gt;&lt;/font&gt;" style="endArrow=open;startArrow=none;endFill=0;startFill=0;endSize=8;html=1;verticalAlign=bottom;dashed=1;labelBackgroundColor=none;rounded=0;exitX=0;exitY=0.5;exitDx=0;exitDy=0;entryX=0.951;entryY=0.729;entryDx=0;entryDy=0;entryPerimeter=0;" edge="1" parent="1" source="K259Kp41WnnDMevqQn30-5" target="K259Kp41WnnDMevqQn30-2">
          <mxGeometry x="0.0993" y="-10" width="160" relative="1" as="geometry">
            <mxPoint x="574" y="120" as="sourcePoint" />
            <mxPoint x="500" y="309" as="targetPoint" />
            <mxPoint as="offset" />
          </mxGeometry>
        </mxCell>
        <mxCell id="K259Kp41WnnDMevqQn30-9" value="" style="endArrow=none;html=1;rounded=0;entryX=0;entryY=0.5;entryDx=0;entryDy=0;" edge="1" parent="1" source="K259Kp41WnnDMevqQn30-1" target="K259Kp41WnnDMevqQn30-2">
          <mxGeometry width="50" height="50" relative="1" as="geometry">
            <mxPoint x="390" y="220" as="sourcePoint" />
            <mxPoint x="440" y="170" as="targetPoint" />
          </mxGeometry>
        </mxCell>
        <mxCell id="K259Kp41WnnDMevqQn30-10" value="&lt;font face=&quot;Times New Roman&quot;&gt;&lt;span style=&quot;font-size: 18px;&quot;&gt;Quản lý mượn - trả - đặt trước&lt;/span&gt;&lt;/font&gt;" style="ellipse;whiteSpace=wrap;html=1;" vertex="1" parent="1">
          <mxGeometry x="270" y="230" width="160" height="80" as="geometry" />
        </mxCell>
        <mxCell id="K259Kp41WnnDMevqQn30-11" value="&lt;font style=&quot;font-size: 18px;&quot; face=&quot;Times New Roman&quot;&gt;Quản lý sách và tài liệu&lt;/font&gt;" style="ellipse;whiteSpace=wrap;html=1;" vertex="1" parent="1">
          <mxGeometry x="340" y="720" width="160" height="80" as="geometry" />
        </mxCell>
        <mxCell id="K259Kp41WnnDMevqQn30-12" value="&lt;font face=&quot;Times New Roman&quot;&gt;&lt;span style=&quot;font-size: 18px;&quot;&gt;Quản lý thông báo phản hồi&lt;/span&gt;&lt;/font&gt;" style="ellipse;whiteSpace=wrap;html=1;" vertex="1" parent="1">
          <mxGeometry x="253" y="430" width="160" height="80" as="geometry" />
        </mxCell>
        <mxCell id="K259Kp41WnnDMevqQn30-13" value="" style="endArrow=none;html=1;rounded=0;exitX=1;exitY=0.3333333333333333;exitDx=0;exitDy=0;exitPerimeter=0;entryX=0;entryY=0.5;entryDx=0;entryDy=0;" edge="1" parent="1" source="K259Kp41WnnDMevqQn30-1" target="K259Kp41WnnDMevqQn30-10">
          <mxGeometry width="50" height="50" relative="1" as="geometry">
            <mxPoint x="390" y="320" as="sourcePoint" />
            <mxPoint x="440" y="270" as="targetPoint" />
          </mxGeometry>
        </mxCell>
        <mxCell id="K259Kp41WnnDMevqQn30-14" value="" style="endArrow=none;html=1;rounded=0;entryX=0;entryY=0.5;entryDx=0;entryDy=0;" edge="1" parent="1" source="K259Kp41WnnDMevqQn30-1" target="K259Kp41WnnDMevqQn30-12">
          <mxGeometry width="50" height="50" relative="1" as="geometry">
            <mxPoint x="390" y="320" as="sourcePoint" />
            <mxPoint x="440" y="270" as="targetPoint" />
          </mxGeometry>
        </mxCell>
        <mxCell id="K259Kp41WnnDMevqQn30-15" value="" style="endArrow=none;html=1;rounded=0;entryX=0;entryY=0;entryDx=0;entryDy=0;" edge="1" parent="1" source="K259Kp41WnnDMevqQn30-1" target="K259Kp41WnnDMevqQn30-11">
          <mxGeometry width="50" height="50" relative="1" as="geometry">
            <mxPoint x="390" y="320" as="sourcePoint" />
            <mxPoint x="440" y="270" as="targetPoint" />
          </mxGeometry>
        </mxCell>
        <mxCell id="K259Kp41WnnDMevqQn30-16" value="&lt;font face=&quot;Times New Roman&quot;&gt;&lt;span style=&quot;font-size: 18px;&quot;&gt;Tìm kiếm&amp;nbsp;&amp;nbsp;&lt;/span&gt;&lt;/font&gt;" style="ellipse;whiteSpace=wrap;html=1;" vertex="1" parent="1">
          <mxGeometry x="700" y="740" width="120" height="60" as="geometry" />
        </mxCell>
        <mxCell id="K259Kp41WnnDMevqQn30-17" value="&lt;font style=&quot;font-size: 18px;&quot; face=&quot;Times New Roman&quot;&gt;&amp;lt;&amp;lt;extend&amp;gt;&amp;gt;&lt;/font&gt;" style="endArrow=open;startArrow=none;endFill=0;startFill=0;endSize=8;html=1;verticalAlign=bottom;dashed=1;labelBackgroundColor=none;rounded=0;exitX=0;exitY=0.5;exitDx=0;exitDy=0;entryX=0.96;entryY=0.64;entryDx=0;entryDy=0;entryPerimeter=0;" edge="1" parent="1" source="K259Kp41WnnDMevqQn30-16" target="K259Kp41WnnDMevqQn30-11">
          <mxGeometry x="0.0993" y="-10" width="160" relative="1" as="geometry">
            <mxPoint x="537.92" y="698" as="sourcePoint" />
            <mxPoint x="330" y="690" as="targetPoint" />
            <mxPoint as="offset" />
          </mxGeometry>
        </mxCell>
        <mxCell id="K259Kp41WnnDMevqQn30-18" value="&lt;font face=&quot;Times New Roman&quot;&gt;&lt;span style=&quot;font-size: 18px;&quot;&gt;Cập nhật sách mới&lt;/span&gt;&lt;/font&gt;" style="ellipse;whiteSpace=wrap;html=1;" vertex="1" parent="1">
          <mxGeometry x="727" y="860" width="120" height="60" as="geometry" />
        </mxCell>
        <mxCell id="K259Kp41WnnDMevqQn30-19" value="&lt;font face=&quot;Times New Roman&quot;&gt;&lt;span style=&quot;font-size: 18px;&quot;&gt;Xóa sách&lt;/span&gt;&lt;/font&gt;" style="ellipse;whiteSpace=wrap;html=1;" vertex="1" parent="1">
          <mxGeometry x="720" y="960" width="120" height="60" as="geometry" />
        </mxCell>
        <mxCell id="K259Kp41WnnDMevqQn30-20" value="&lt;font face=&quot;Times New Roman&quot;&gt;&lt;span style=&quot;font-size: 18px;&quot;&gt;Quản lý tình trạng sách&lt;/span&gt;&lt;/font&gt;" style="ellipse;whiteSpace=wrap;html=1;" vertex="1" parent="1">
          <mxGeometry x="740" y="1060" width="120" height="60" as="geometry" />
        </mxCell>
        <mxCell id="K259Kp41WnnDMevqQn30-22" value="&lt;font style=&quot;font-size: 18px;&quot; face=&quot;Times New Roman&quot;&gt;&amp;lt;&amp;lt;extend&amp;gt;&amp;gt;&lt;/font&gt;" style="endArrow=open;startArrow=none;endFill=0;startFill=0;endSize=8;html=1;verticalAlign=bottom;dashed=1;labelBackgroundColor=none;rounded=0;exitX=0;exitY=0.5;exitDx=0;exitDy=0;entryX=0.97;entryY=0.73;entryDx=0;entryDy=0;entryPerimeter=0;" edge="1" parent="1" source="K259Kp41WnnDMevqQn30-18" target="K259Kp41WnnDMevqQn30-11">
          <mxGeometry x="0.0993" y="-10" width="160" relative="1" as="geometry">
            <mxPoint x="446" y="809" as="sourcePoint" />
            <mxPoint x="240" y="750" as="targetPoint" />
            <mxPoint as="offset" />
          </mxGeometry>
        </mxCell>
        <mxCell id="K259Kp41WnnDMevqQn30-23" value="&lt;font style=&quot;font-size: 18px;&quot; face=&quot;Times New Roman&quot;&gt;&amp;lt;&amp;lt;extend&amp;gt;&amp;gt;&lt;/font&gt;" style="endArrow=open;startArrow=none;endFill=0;startFill=0;endSize=8;html=1;verticalAlign=bottom;dashed=1;labelBackgroundColor=none;rounded=0;exitX=0;exitY=0;exitDx=0;exitDy=0;entryX=1;entryY=1;entryDx=0;entryDy=0;" edge="1" parent="1" source="K259Kp41WnnDMevqQn30-19" target="K259Kp41WnnDMevqQn30-11">
          <mxGeometry x="0.0993" y="-10" width="160" relative="1" as="geometry">
            <mxPoint x="456" y="849" as="sourcePoint" />
            <mxPoint x="250" y="790" as="targetPoint" />
            <mxPoint as="offset" />
          </mxGeometry>
        </mxCell>
        <mxCell id="K259Kp41WnnDMevqQn30-24" value="&lt;font style=&quot;font-size: 18px;&quot; face=&quot;Times New Roman&quot;&gt;&amp;lt;&amp;lt;extend&amp;gt;&amp;gt;&lt;/font&gt;" style="endArrow=open;startArrow=none;endFill=0;startFill=0;endSize=8;html=1;verticalAlign=bottom;dashed=1;labelBackgroundColor=none;rounded=0;entryX=0.795;entryY=0.97;entryDx=0;entryDy=0;entryPerimeter=0;" edge="1" parent="1" source="K259Kp41WnnDMevqQn30-20" target="K259Kp41WnnDMevqQn30-11">
          <mxGeometry x="0.0993" y="-10" width="160" relative="1" as="geometry">
            <mxPoint x="376" y="889" as="sourcePoint" />
            <mxPoint x="170" y="830" as="targetPoint" />
            <mxPoint as="offset" />
          </mxGeometry>
        </mxCell>
        <mxCell id="K259Kp41WnnDMevqQn30-25" value="&lt;font face=&quot;Times New Roman&quot;&gt;&lt;span style=&quot;font-size: 18px;&quot;&gt;Ghi nhận mượn sách&lt;/span&gt;&lt;/font&gt;" style="ellipse;whiteSpace=wrap;html=1;" vertex="1" parent="1">
          <mxGeometry x="740" y="130" width="140" height="70" as="geometry" />
        </mxCell>
        <mxCell id="K259Kp41WnnDMevqQn30-26" value="&lt;font face=&quot;Times New Roman&quot;&gt;&lt;span style=&quot;font-size: 18px;&quot;&gt;Ghi nhận trả sách&lt;/span&gt;&lt;/font&gt;" style="ellipse;whiteSpace=wrap;html=1;" vertex="1" parent="1">
          <mxGeometry x="700" y="230" width="140" height="70" as="geometry" />
        </mxCell>
        <mxCell id="K259Kp41WnnDMevqQn30-27" value="&lt;font face=&quot;Times New Roman&quot;&gt;&lt;span style=&quot;font-size: 18px;&quot;&gt;Ghi nhận vi phạm&lt;/span&gt;&lt;/font&gt;" style="ellipse;whiteSpace=wrap;html=1;" vertex="1" parent="1">
          <mxGeometry x="600" y="430" width="140" height="70" as="geometry" />
        </mxCell>
        <mxCell id="K259Kp41WnnDMevqQn30-28" value="&lt;font style=&quot;font-size: 18px;&quot; face=&quot;Times New Roman&quot;&gt;&amp;lt;&amp;lt;extend&amp;gt;&amp;gt;&lt;/font&gt;" style="endArrow=open;startArrow=none;endFill=0;startFill=0;endSize=8;html=1;verticalAlign=bottom;dashed=1;labelBackgroundColor=none;rounded=0;exitX=0.023;exitY=0.343;exitDx=0;exitDy=0;entryX=0.998;entryY=0.335;entryDx=0;entryDy=0;entryPerimeter=0;exitPerimeter=0;" edge="1" parent="1" source="K259Kp41WnnDMevqQn30-25" target="K259Kp41WnnDMevqQn30-10">
          <mxGeometry x="0.0993" y="-10" width="160" relative="1" as="geometry">
            <mxPoint x="798" y="142" as="sourcePoint" />
            <mxPoint x="560" y="130" as="targetPoint" />
            <mxPoint as="offset" />
          </mxGeometry>
        </mxCell>
        <mxCell id="K259Kp41WnnDMevqQn30-29" value="&lt;font style=&quot;font-size: 18px;&quot; face=&quot;Times New Roman&quot;&gt;&amp;lt;&amp;lt;extend&amp;gt;&amp;gt;&lt;/font&gt;" style="endArrow=open;startArrow=none;endFill=0;startFill=0;endSize=8;html=1;verticalAlign=bottom;dashed=1;labelBackgroundColor=none;rounded=0;exitX=0;exitY=0.5;exitDx=0;exitDy=0;entryX=1;entryY=0.5;entryDx=0;entryDy=0;" edge="1" parent="1" source="K259Kp41WnnDMevqQn30-26" target="K259Kp41WnnDMevqQn30-10">
          <mxGeometry x="0.0993" y="-10" width="160" relative="1" as="geometry">
            <mxPoint x="778" y="292" as="sourcePoint" />
            <mxPoint x="540" y="280" as="targetPoint" />
            <mxPoint as="offset" />
          </mxGeometry>
        </mxCell>
        <mxCell id="K259Kp41WnnDMevqQn30-30" value="&lt;font style=&quot;font-size: 18px;&quot; face=&quot;Times New Roman&quot;&gt;&amp;lt;&amp;lt;extend&amp;gt;&amp;gt;&lt;/font&gt;" style="endArrow=open;startArrow=none;endFill=0;startFill=0;endSize=8;html=1;verticalAlign=bottom;dashed=1;labelBackgroundColor=none;rounded=0;exitX=0.051;exitY=0.354;exitDx=0;exitDy=0;entryX=0.998;entryY=0.695;entryDx=0;entryDy=0;entryPerimeter=0;exitPerimeter=0;" edge="1" parent="1" source="K259Kp41WnnDMevqQn30-27" target="K259Kp41WnnDMevqQn30-10">
          <mxGeometry x="0.0993" y="-10" width="160" relative="1" as="geometry">
            <mxPoint x="758" y="342" as="sourcePoint" />
            <mxPoint x="520" y="330" as="targetPoint" />
            <mxPoint as="offset" />
            <Array as="points">
              <mxPoint x="560" y="410" />
            </Array>
          </mxGeometry>
        </mxCell>
        <mxCell id="K259Kp41WnnDMevqQn30-31" value="&lt;font face=&quot;Times New Roman&quot;&gt;&lt;span style=&quot;font-size: 18px;&quot;&gt;Ghi nhận đặt trước sách&lt;/span&gt;&lt;/font&gt;" style="ellipse;whiteSpace=wrap;html=1;" vertex="1" parent="1">
          <mxGeometry x="700" y="330" width="140" height="70" as="geometry" />
        </mxCell>
        <mxCell id="K259Kp41WnnDMevqQn30-32" value="&lt;font style=&quot;font-size: 18px;&quot; face=&quot;Times New Roman&quot;&gt;&amp;lt;&amp;lt;extend&amp;gt;&amp;gt;&lt;/font&gt;" style="endArrow=open;startArrow=none;endFill=0;startFill=0;endSize=8;html=1;verticalAlign=bottom;dashed=1;labelBackgroundColor=none;rounded=0;exitX=0;exitY=0.5;exitDx=0;exitDy=0;entryX=1.008;entryY=0.655;entryDx=0;entryDy=0;entryPerimeter=0;" edge="1" parent="1" source="K259Kp41WnnDMevqQn30-31" target="K259Kp41WnnDMevqQn30-10">
          <mxGeometry x="0.0993" y="-10" width="160" relative="1" as="geometry">
            <mxPoint x="940" y="270" as="sourcePoint" />
            <mxPoint x="670" y="275" as="targetPoint" />
            <mxPoint as="offset" />
          </mxGeometry>
        </mxCell>
        <mxCell id="K259Kp41WnnDMevqQn30-33" value="&lt;font face=&quot;Times New Roman&quot;&gt;&lt;span style=&quot;font-size: 18px;&quot;&gt;Nhận phản hồi&lt;/span&gt;&lt;/font&gt;" style="ellipse;whiteSpace=wrap;html=1;" vertex="1" parent="1">
          <mxGeometry x="600" y="530" width="140" height="70" as="geometry" />
        </mxCell>
        <mxCell id="K259Kp41WnnDMevqQn30-34" value="&lt;font style=&quot;font-size: 18px;&quot; face=&quot;Times New Roman&quot;&gt;&amp;lt;&amp;lt;extend&amp;gt;&amp;gt;&lt;/font&gt;" style="endArrow=open;startArrow=none;endFill=0;startFill=0;endSize=8;html=1;verticalAlign=bottom;dashed=1;labelBackgroundColor=none;rounded=0;exitX=0;exitY=0.5;exitDx=0;exitDy=0;entryX=0.977;entryY=0.7;entryDx=0;entryDy=0;entryPerimeter=0;" edge="1" parent="1" source="K259Kp41WnnDMevqQn30-33" target="K259Kp41WnnDMevqQn30-12">
          <mxGeometry x="0.0993" y="-10" width="160" relative="1" as="geometry">
            <mxPoint x="987" y="624" as="sourcePoint" />
            <mxPoint x="369.9999999999918" y="495" as="targetPoint" />
            <mxPoint as="offset" />
            <Array as="points" />
          </mxGeometry>
        </mxCell>
        <mxCell id="K259Kp41WnnDMevqQn30-36" value="&lt;font face=&quot;Times New Roman&quot;&gt;&lt;span style=&quot;font-size: 18px;&quot;&gt;Tìm kiếm sách&lt;/span&gt;&lt;/font&gt;" style="ellipse;whiteSpace=wrap;html=1;" vertex="1" parent="1">
          <mxGeometry x="980" y="680" width="120" height="60" as="geometry" />
        </mxCell>
        <mxCell id="K259Kp41WnnDMevqQn30-37" value="&lt;font face=&quot;Times New Roman&quot;&gt;&lt;span style=&quot;font-size: 18px;&quot;&gt;Tìm kiếm độc giả&lt;/span&gt;&lt;/font&gt;" style="ellipse;whiteSpace=wrap;html=1;" vertex="1" parent="1">
          <mxGeometry x="1020" y="770" width="120" height="70" as="geometry" />
        </mxCell>
        <mxCell id="K259Kp41WnnDMevqQn30-38" value="&lt;font style=&quot;font-size: 18px;&quot; face=&quot;Times New Roman&quot;&gt;&amp;lt;&amp;lt;extend&amp;gt;&amp;gt;&lt;/font&gt;" style="endArrow=open;startArrow=none;endFill=0;startFill=0;endSize=8;html=1;verticalAlign=bottom;dashed=1;labelBackgroundColor=none;rounded=0;exitX=0;exitY=0.5;exitDx=0;exitDy=0;entryX=1;entryY=0.5;entryDx=0;entryDy=0;" edge="1" parent="1" source="K259Kp41WnnDMevqQn30-36" target="K259Kp41WnnDMevqQn30-16">
          <mxGeometry x="0.0993" y="-10" width="160" relative="1" as="geometry">
            <mxPoint x="630" y="750" as="sourcePoint" />
            <mxPoint x="530" y="690" as="targetPoint" />
            <mxPoint as="offset" />
            <Array as="points" />
          </mxGeometry>
        </mxCell>
        <mxCell id="K259Kp41WnnDMevqQn30-39" value="&lt;font style=&quot;font-size: 18px;&quot; face=&quot;Times New Roman&quot;&gt;&amp;lt;&amp;lt;extend&amp;gt;&amp;gt;&lt;/font&gt;" style="endArrow=open;startArrow=none;endFill=0;startFill=0;endSize=8;html=1;verticalAlign=bottom;dashed=1;labelBackgroundColor=none;rounded=0;exitX=0;exitY=0.5;exitDx=0;exitDy=0;entryX=1;entryY=0.5;entryDx=0;entryDy=0;" edge="1" parent="1" source="K259Kp41WnnDMevqQn30-37" target="K259Kp41WnnDMevqQn30-16">
          <mxGeometry x="0.0993" y="-10" width="160" relative="1" as="geometry">
            <mxPoint x="970" y="880" as="sourcePoint" />
            <mxPoint x="870" y="820" as="targetPoint" />
            <mxPoint as="offset" />
            <Array as="points" />
          </mxGeometry>
        </mxCell>
        <mxCell id="K259Kp41WnnDMevqQn30-40" value="&lt;font face=&quot;Times New Roman&quot;&gt;&lt;span style=&quot;font-size: 18px;&quot;&gt;Gửi thông báo&lt;/span&gt;&lt;/font&gt;" style="ellipse;whiteSpace=wrap;html=1;" vertex="1" parent="1">
          <mxGeometry x="580" y="632.8" width="140" height="70" as="geometry" />
        </mxCell>
        <mxCell id="K259Kp41WnnDMevqQn30-41" value="&lt;font style=&quot;font-size: 18px;&quot; face=&quot;Times New Roman&quot;&gt;&amp;lt;&amp;lt;extend&amp;gt;&amp;gt;&lt;/font&gt;" style="endArrow=open;startArrow=none;endFill=0;startFill=0;endSize=8;html=1;verticalAlign=bottom;dashed=1;labelBackgroundColor=none;rounded=0;exitX=0;exitY=0.5;exitDx=0;exitDy=0;entryX=1;entryY=1;entryDx=0;entryDy=0;" edge="1" parent="1" source="K259Kp41WnnDMevqQn30-40" target="K259Kp41WnnDMevqQn30-12">
          <mxGeometry x="0.0993" y="-10" width="160" relative="1" as="geometry">
            <mxPoint x="967" y="726.8" as="sourcePoint" />
            <mxPoint x="320.96000000000004" y="310.0000000000003" as="targetPoint" />
            <mxPoint as="offset" />
            <Array as="points" />
          </mxGeometry>
        </mxCell>
      </root>
    </mxGraphModel>
  </diagram>
</mxfile>
